<svg width="55" height="55" viewBox="0 0 55 55" fill="none" xmlns="http://www.w3.org/2000/svg">
<circle cx="27.5" cy="27.5" r="27.5" fill="#F9BA48"/>
<g clip-path="url(#clip0)">
<path d="M39.423 35.6L34.361 30.476C35.7142 28.4031 36.2496 25.9016 35.8634 23.4564C35.4772 21.0113 34.1968 18.7966 32.2706 17.2417C30.3444 15.6868 27.9095 14.9024 25.4378 15.0406C22.9662 15.1789 20.6339 16.2299 18.8931 17.9899C17.1523 19.7499 16.1269 22.0935 16.0158 24.5665C15.9046 27.0395 16.7156 29.4657 18.2916 31.3748C19.8675 33.2838 22.0961 34.5398 24.5453 34.8992C26.9946 35.2586 29.4901 34.6958 31.548 33.32L36.577 38.412C36.9536 38.7827 37.4599 38.9918 37.9883 38.9948C38.5166 38.9977 39.0253 38.7944 39.406 38.428C39.7832 38.0552 39.9969 37.5479 40.0001 37.0175C40.0033 36.4872 39.7957 35.9773 39.423 35.6ZM26 16.755C27.6317 16.755 29.2268 17.2389 30.5835 18.1454C31.9402 19.0519 32.9976 20.3404 33.622 21.8479C34.2464 23.3554 34.4098 25.0142 34.0915 26.6145C33.7732 28.2148 32.9874 29.6849 31.8336 30.8386C30.6799 31.9924 29.2098 32.7782 27.6095 33.0965C26.0092 33.4148 24.3504 33.2514 22.8429 32.627C21.3354 32.0026 20.0469 30.9452 19.1404 29.5885C18.2339 28.2318 17.75 26.6367 17.75 25.005C17.7527 22.8178 18.6227 20.7209 20.1693 19.1743C21.7159 17.6277 23.8128 16.7576 26 16.755Z" fill="#181A32"/>
<path d="M26 31.755C29.7279 31.755 32.75 28.7329 32.75 25.005C32.75 21.2771 29.7279 18.255 26 18.255C22.2721 18.255 19.25 21.2771 19.25 25.005C19.25 28.7329 22.2721 31.755 26 31.755Z" fill="#181A32"/>
</g>
<defs>
<clipPath id="clip0">
<rect width="24" height="24" fill="white" transform="translate(16 15)"/>
</clipPath>
</defs>
</svg>
