<svg width="55" height="55" viewBox="0 0 55 55" fill="none" xmlns="http://www.w3.org/2000/svg">
<circle cx="27.5" cy="27.5" r="27.5" fill="#F9BA48"/>
<g clip-path="url(#clip0)">
<path d="M38.2 25.53C38.4259 25.4839 38.6289 25.3612 38.7747 25.1826C38.9204 25.004 39 24.7805 39 24.55V20.5C39 20.1022 38.842 19.7206 38.5607 19.4393C38.2794 19.158 37.8978 19 37.5 19H16.5C16.1022 19 15.7206 19.158 15.4393 19.4393C15.158 19.7206 15 20.1022 15 20.5V24.55C15 24.7805 15.0796 25.004 15.2253 25.1826C15.3711 25.3612 15.5741 25.4839 15.8 25.53C16.1391 25.5989 16.4439 25.7828 16.6629 26.0507C16.8819 26.3186 17.0015 26.654 17.0015 27C17.0015 27.346 16.8819 27.6814 16.6629 27.9493C16.4439 28.2172 16.1391 28.4011 15.8 28.47C15.5741 28.5161 15.3711 28.6388 15.2253 28.8174C15.0796 28.996 15 29.2195 15 29.45V33.5C15 33.8978 15.158 34.2794 15.4393 34.5607C15.7206 34.842 16.1022 35 16.5 35H37.5C37.8978 35 38.2794 34.842 38.5607 34.5607C38.842 34.2794 39 33.8978 39 33.5V29.45C39 29.2195 38.9204 28.996 38.7747 28.8174C38.6289 28.6388 38.4259 28.5161 38.2 28.47C37.8609 28.4011 37.5561 28.2172 37.3371 27.9493C37.1181 27.6814 36.9985 27.346 36.9985 27C36.9985 26.654 37.1181 26.3186 37.3371 26.0507C37.5561 25.7828 37.8609 25.5989 38.2 25.53ZM20.25 33.25C20.1017 33.25 19.9567 33.206 19.8333 33.1236C19.71 33.0412 19.6139 32.9241 19.5571 32.787C19.5003 32.65 19.4855 32.4992 19.5144 32.3537C19.5433 32.2082 19.6148 32.0746 19.7197 31.9697C19.8246 31.8648 19.9582 31.7934 20.1037 31.7644C20.2492 31.7355 20.4 31.7503 20.537 31.8071C20.6741 31.8639 20.7912 31.96 20.8736 32.0833C20.956 32.2067 21 32.3517 21 32.5C21 32.6989 20.921 32.8897 20.7803 33.0303C20.6397 33.171 20.4489 33.25 20.25 33.25ZM20.25 29.583C20.1017 29.583 19.9567 29.539 19.8333 29.4566C19.71 29.3742 19.6139 29.2571 19.5571 29.12C19.5003 28.983 19.4855 28.8322 19.5144 28.6867C19.5433 28.5412 19.6148 28.4076 19.7197 28.3027C19.8246 28.1978 19.9582 28.1264 20.1037 28.0974C20.2492 28.0685 20.4 28.0833 20.537 28.1401C20.6741 28.1969 20.7912 28.293 20.8736 28.4163C20.956 28.5397 21 28.6847 21 28.833C21 29.0319 20.921 29.2227 20.7803 29.3633C20.6397 29.504 20.4489 29.583 20.25 29.583ZM20.25 25.917C20.1017 25.917 19.9567 25.873 19.8333 25.7906C19.71 25.7082 19.6139 25.5911 19.5571 25.454C19.5003 25.317 19.4855 25.1662 19.5144 25.0207C19.5433 24.8752 19.6148 24.7416 19.7197 24.6367C19.8246 24.5318 19.9582 24.4603 20.1037 24.4314C20.2492 24.4025 20.4 24.4173 20.537 24.4741C20.6741 24.5309 20.7912 24.627 20.8736 24.7503C20.956 24.8737 21 25.0187 21 25.167C21 25.3659 20.921 25.5567 20.7803 25.6973C20.6397 25.838 20.4489 25.917 20.25 25.917ZM20.25 22.25C20.1017 22.25 19.9567 22.206 19.8333 22.1236C19.71 22.0412 19.6139 21.9241 19.5571 21.787C19.5003 21.65 19.4855 21.4992 19.5144 21.3537C19.5433 21.2082 19.6148 21.0746 19.7197 20.9697C19.8246 20.8648 19.9582 20.7933 20.1037 20.7644C20.2492 20.7355 20.4 20.7503 20.537 20.8071C20.6741 20.8639 20.7912 20.96 20.8736 21.0833C20.956 21.2067 21 21.3517 21 21.5C21 21.6989 20.921 21.8897 20.7803 22.0303C20.6397 22.171 20.4489 22.25 20.25 22.25ZM32 31.25C31.6539 31.25 31.3155 31.1474 31.0278 30.9551C30.74 30.7628 30.5157 30.4895 30.3832 30.1697C30.2508 29.8499 30.2161 29.4981 30.2836 29.1586C30.3511 28.8191 30.5178 28.5073 30.7626 28.2626C31.0073 28.0178 31.3191 27.8511 31.6586 27.7836C31.9981 27.7161 32.3499 27.7508 32.6697 27.8832C32.9895 28.0157 33.2628 28.24 33.4551 28.5278C33.6474 28.8155 33.75 29.1539 33.75 29.5C33.7497 29.964 33.5653 30.409 33.2371 30.7371C32.909 31.0653 32.464 31.2497 32 31.25ZM33.5 23.75H24.5C24.3011 23.75 24.1103 23.671 23.9697 23.5303C23.829 23.3897 23.75 23.1989 23.75 23C23.75 22.8011 23.829 22.6103 23.9697 22.4697C24.1103 22.329 24.3011 22.25 24.5 22.25H33.5C33.6989 22.25 33.8897 22.329 34.0303 22.4697C34.171 22.6103 34.25 22.8011 34.25 23C34.25 23.1989 34.171 23.3897 34.0303 23.5303C33.8897 23.671 33.6989 23.75 33.5 23.75Z" fill="#181A32"/>
</g>
<defs>
<clipPath id="clip0">
<rect width="24" height="24" fill="white" transform="translate(15 15)"/>
</clipPath>
</defs>
</svg>
