<svg>
    <defs>
        <symbol id="search" width="14" height="15" viewBox="0 0 14 15" fill="none" xmlns="http://www.w3.org/2000/svg">
            <path fill-rule="evenodd" clip-rule="evenodd" d="M5.51001 11.5098C2.47241 11.5098 0.0100098 9.04736 0.0100098 6.00977C0.0100098 2.97217 2.47241 0.509766 5.51001 0.509766C8.54761 0.509766 11.01 2.97217 11.01 6.00977C11.01 7.30469 10.5625 8.49561 9.8136 9.43506C9.84509 9.45166 9.87549 9.47119 9.90442 9.49316C9.92712 9.51025 9.94885 9.5293 9.9696 9.55029L13.788 13.3687C14.0419 13.6226 14.0419 14.0342 13.788 14.2881C13.5342 14.5415 13.1226 14.5415 12.8688 14.2881L9.05042 10.4697C9.00317 10.4224 8.9646 10.3696 8.93494 10.3135C7.99524 11.0625 6.80493 11.5098 5.51001 11.5098ZM10.01 6.00977C10.01 8.49512 7.99524 10.5098 5.51001 10.5098C3.02478 10.5098 1.01001 8.49512 1.01001 6.00977C1.01001 3.52441 3.02478 1.50977 5.51001 1.50977C7.99524 1.50977 10.01 3.52441 10.01 6.00977Z" fill="#8E8E93"/>
        </symbol>
        <symbol id="card" width="55" height="47" viewBox="0 0 55 47" fill="none" xmlns="http://www.w3.org/2000/svg">
            <rect width="55" height="47" rx="3" fill="#E5E5E5" fill-opacity="0.61"/>
            <path d="M40.1946 18.2022L37.9325 15.9399C37.1392 16.7331 35.853 16.7331 35.0598 15.9399C34.2665 15.1466 34.2665 13.8606 35.0598 13.0673L34.6505 12.6581L24.3091 22.9997H36.8335L40.1946 19.6384C40.5914 19.2418 40.5914 18.5987 40.1946 18.2022Z" fill="#181A32" fill-opacity="0.15"/>
            <path d="M19.6194 26.2096L30.5352 15.2938L35.706 20.4644L24.79 31.3802L19.6194 26.2096Z" fill="white"/>
            <path d="M38.4609 29.2458C38.4609 28.1326 39.3566 27.229 40.4664 27.2152C40.3639 26.7627 39.96 26.4245 39.4766 26.4245H16.5233C16.0399 26.4245 15.636 26.7627 15.5335 27.2152C16.6433 27.229 17.539 28.1326 17.539 29.2458C17.539 30.3676 16.6294 31.2771 15.5077 31.2771V34.4763C15.5077 35.0371 15.9623 35.492 16.5233 35.492H39.4766C40.0376 35.492 40.4922 35.0371 40.4922 34.4763V31.2771C39.3705 31.2771 38.4609 30.3676 38.4609 29.2458Z" fill="#181A32" fill-opacity="0.15"/>
            <path d="M20.2812 25.5896H35.7188V32.9021H20.2812V25.5896Z" fill="white"/>
            <path d="M21.6635 21.0111C21.7972 21.0111 21.9281 20.9567 22.0225 20.8623C22.1169 20.7677 22.1713 20.6368 22.1713 20.5033C22.1713 20.3696 22.1169 20.2386 22.0225 20.1442C21.9281 20.0498 21.7972 19.9955 21.6635 19.9955C21.5294 19.9955 21.399 20.0498 21.3044 20.1442C21.21 20.2386 21.1556 20.3696 21.1556 20.5033C21.1556 20.6368 21.21 20.7677 21.3044 20.8623C21.399 20.9567 21.53 21.0111 21.6635 21.0111Z" fill="#181A32"/>
            <path d="M28.9378 20.3386C28.843 20.2442 28.7125 20.1898 28.5784 20.1898C28.4449 20.1898 28.3138 20.2442 28.2193 20.3386C28.1249 20.433 28.0706 20.5642 28.0706 20.6977C28.0706 20.8312 28.1249 20.9623 28.2193 21.0567C28.3138 21.1511 28.4449 21.2055 28.5784 21.2055C28.7125 21.2055 28.843 21.1511 28.9378 21.0567C29.0322 20.9623 29.0862 20.8318 29.0862 20.6977C29.0862 20.5642 29.0322 20.433 28.9378 20.3386Z" fill="#181A32"/>
            <path d="M30.3561 19.4281C30.4898 19.4281 30.6207 19.3738 30.7152 19.2793C30.8096 19.1849 30.8635 19.0538 30.8635 18.9203C30.8635 18.7868 30.8096 18.6557 30.7152 18.5612C30.6207 18.4668 30.4898 18.4125 30.3561 18.4125C30.2222 18.4125 30.0911 18.4668 29.9967 18.5612C29.9023 18.6557 29.8479 18.7868 29.8479 18.9203C29.8479 19.0538 29.9023 19.1849 29.9967 19.2793C30.0911 19.3738 30.2222 19.4281 30.3561 19.4281Z" fill="#181A32"/>
            <path d="M39.4767 22.492H38.0597L40.554 19.9978C40.8416 19.71 41.0001 19.3273 41.0001 18.9205C41.0001 18.5136 40.8416 18.131 40.554 17.8434L38.2916 15.581C38.0935 15.3828 37.7719 15.3828 37.5735 15.581C37.2859 15.8688 36.9033 16.0273 36.4964 16.0273C36.0894 16.0273 35.7069 15.8688 35.4191 15.581C35.1313 15.2934 34.973 14.9107 34.973 14.5039C34.973 14.0968 35.1315 13.7144 35.4191 13.4266C35.5143 13.3313 35.5679 13.2022 35.5679 13.0675C35.5679 12.9328 35.5143 12.8037 35.4191 12.7085L33.1569 10.4463C32.8691 10.1585 32.4867 10 32.0796 10C31.6728 10 31.2901 10.1585 31.0025 10.4463L22.6152 18.8334C22.4169 19.0316 22.4169 19.3531 22.6152 19.5515C22.8136 19.7498 23.1351 19.7498 23.3335 19.5515L31.7206 11.1644C31.8166 11.0684 31.9439 11.0156 32.0796 11.0156C32.2153 11.0156 32.3429 11.0684 32.4387 11.1644L34.3777 13.1032C34.1041 13.515 33.9573 13.9982 33.9573 14.5039C33.9573 15.1821 34.2214 15.8196 34.701 16.2993C35.1807 16.7787 35.8182 17.0429 36.4964 17.0429C37.0021 17.0429 37.4851 16.8962 37.8971 16.6226L39.8359 18.5614C40.0339 18.7594 40.0339 19.0815 39.8359 19.2795L36.6234 22.492H34.3971L36.0656 20.8236C36.2637 20.6252 36.2637 20.3037 36.0656 20.1055L30.8948 14.9347C30.6964 14.7364 30.3749 14.7364 30.1765 14.9347L22.6192 22.492H16.5234C15.6834 22.492 15 23.1754 15 24.0155V27.2147C15 27.495 15.2273 27.7225 15.5078 27.7225C16.3479 27.7225 17.0313 28.4059 17.0313 29.246C17.0313 30.0858 16.3479 30.7694 15.5078 30.7694C15.2273 30.7694 15 30.9967 15 31.2772V34.4765C15 35.3163 15.6834 35.9999 16.5234 35.9999H39.4767C40.3167 35.9999 41.0001 35.3163 41.0001 34.4765V31.2772C41.0001 30.9967 40.7728 30.7694 40.4923 30.7694C39.6522 30.7694 38.9688 30.0858 38.9688 29.246C38.9688 28.4059 39.6522 27.7225 40.4923 27.7225C40.7728 27.7225 41.0001 27.495 41.0001 27.2147V24.0155C41.0001 23.1754 40.3167 22.492 39.4767 22.492ZM30.5356 16.0118L34.9883 20.4645L32.9608 22.492H30.9499L32.4387 21.0031C32.637 20.8049 32.637 20.4834 32.4387 20.285C32.2405 20.0867 31.9189 20.0867 31.7206 20.285L29.5136 22.4918H24.0556L30.5356 16.0118ZM39.9845 26.7579C38.827 26.9937 37.9532 28.0197 37.9532 29.246C37.9532 30.4721 38.827 31.498 39.9845 31.7341V34.4765C39.9845 34.7563 39.7567 34.9843 39.4767 34.9843H16.5234C16.2434 34.9843 16.0156 34.7563 16.0156 34.4765V31.7341C17.1731 31.498 18.0469 30.4721 18.0469 29.246C18.0469 28.0197 17.1731 26.9939 16.0156 26.7579V24.0155C16.0156 23.7354 16.2434 23.5077 16.5234 23.5077H39.4767C39.7567 23.5077 39.9845 23.7354 39.9845 24.0155V26.7579Z" fill="#181A32"/>
            <path d="M25.8454 28.3861C25.9398 28.2915 25.9941 28.1606 25.9941 28.0271C25.9941 27.8934 25.9398 27.7625 25.8454 27.668C25.751 27.5736 25.6198 27.5193 25.4863 27.5193C25.3528 27.5193 25.2217 27.5736 25.1273 27.668C25.0329 27.7625 24.9785 27.8934 24.9785 28.0271C24.9785 28.1606 25.0329 28.2915 25.1273 28.3861C25.2217 28.4805 25.3528 28.5349 25.4863 28.5349C25.6198 28.5349 25.751 28.4805 25.8454 28.3861Z" fill="#181A32"/>
            <path d="M30.8727 28.3861C30.9671 28.2915 31.0215 28.1606 31.0215 28.0271C31.0215 27.8934 30.9671 27.7625 30.8727 27.668C30.7783 27.5736 30.6472 27.5193 30.5137 27.5193C30.3802 27.5193 30.2491 27.5736 30.1546 27.668C30.0602 27.7625 30.0059 27.8934 30.0059 28.0271C30.0059 28.1606 30.0602 28.2915 30.1546 28.3861C30.2491 28.4805 30.3802 28.5349 30.5137 28.5349C30.6472 28.5349 30.7783 28.4805 30.8727 28.3861Z" fill="#181A32"/>
            <path d="M28.359 28.3861C28.4535 28.2915 28.5078 28.1606 28.5078 28.0271C28.5078 27.8934 28.4535 27.7625 28.359 27.668C28.2646 27.5736 28.1335 27.5193 28 27.5193C27.8665 27.5193 27.7354 27.5736 27.641 27.668C27.5465 27.7625 27.4922 27.8934 27.4922 28.0271C27.4922 28.1606 27.5465 28.2915 27.641 28.3861C27.7354 28.4805 27.8665 28.5349 28 28.5349C28.1335 28.5349 28.2646 28.4805 28.359 28.3861Z" fill="#181A32"/>
            <path d="M22.9727 28.5349C23.1062 28.5349 23.2373 28.4805 23.3317 28.3861C23.4261 28.2915 23.4805 28.1606 23.4805 28.0271C23.4805 27.8934 23.4261 27.7625 23.3317 27.668C23.2373 27.5736 23.1062 27.5193 22.9727 27.5193C22.8392 27.5193 22.708 27.5736 22.6136 27.668C22.5192 27.7625 22.4648 27.8934 22.4648 28.0271C22.4648 28.1606 22.5192 28.2915 22.6136 28.3861C22.708 28.4805 22.8392 28.5349 22.9727 28.5349Z" fill="#181A32"/>
            <path d="M33.3864 28.3861C33.4808 28.2915 33.5352 28.1606 33.5352 28.0271C33.5352 27.8934 33.4808 27.7625 33.3864 27.668C33.292 27.5736 33.1608 27.5193 33.0273 27.5193C32.8938 27.5193 32.7627 27.5736 32.6683 27.668C32.5739 27.7625 32.5195 27.8934 32.5195 28.0271C32.5195 28.1606 32.5739 28.2915 32.6683 28.3861C32.7627 28.4805 32.8938 28.5349 33.0273 28.5349C33.1608 28.5349 33.292 28.4805 33.3864 28.3861Z" fill="#181A32"/>
            <path d="M22.9727 30.9724H33.0274C33.3079 30.9724 33.5352 30.7449 33.5352 30.4646C33.5352 30.1841 33.3079 29.9568 33.0274 29.9568H22.9727C22.6922 29.9568 22.4648 30.1841 22.4648 30.4646C22.4648 30.7449 22.6922 30.9724 22.9727 30.9724Z" fill="#181A32"/>
            <path d="M24.817 32.3943C24.6835 32.3943 24.5523 32.4486 24.4579 32.5431C24.3635 32.6375 24.3091 32.7684 24.3091 32.9021C24.3091 33.0356 24.3635 33.1665 24.4579 33.2611C24.5523 33.3556 24.6835 33.4099 24.817 33.4099C24.9511 33.4099 25.0816 33.3556 25.176 33.2611C25.271 33.1665 25.3248 33.0356 25.3248 32.9021C25.3248 32.7684 25.271 32.6375 25.176 32.5431C25.0816 32.4486 24.9511 32.3943 24.817 32.3943Z" fill="#181A32"/>
            <path d="M35.7188 25.0817H20.2813C20.0008 25.0817 19.7734 25.3091 19.7734 25.5896V32.9021C19.7734 33.1824 20.0008 33.4099 20.2813 33.4099H22.3966C22.6771 33.4099 22.9044 33.1824 22.9044 32.9021C22.9044 32.6216 22.6771 32.3943 22.3966 32.3943H20.7891V26.0974H35.211V32.3943H26.967C26.6865 32.3943 26.4591 32.6216 26.4591 32.9021C26.4591 33.1824 26.6865 33.4099 26.967 33.4099H35.7188C35.9993 33.4099 36.2267 33.1824 36.2267 32.9021V25.5896C36.2267 25.3091 35.9993 25.0817 35.7188 25.0817Z" fill="#181A32"/>
        </symbol>
    </defs>
</svg>